#define vrotate_width 32
#define vrotate_height 32
static unsigned char vrotate_bits[] = {
   0x00, 0x00, 0x00, 0x00, 0x00, 0x00, 0x00, 0x00, 0x00, 0x00, 0x00, 0x00,
   0x00, 0x00, 0x00, 0x00, 0x00, 0x00, 0x00, 0x00, 0x00, 0x00, 0xfe, 0x01,
   0x00, 0x00, 0x04, 0x01, 0x00, 0x00, 0x08, 0x01, 0x00, 0x00, 0x04, 0x01,
   0x00, 0x00, 0x04, 0x01, 0x00, 0x00, 0x42, 0x01, 0x00, 0x00, 0xa2, 0x01,
   0x00, 0x00, 0x11, 0x01, 0x00, 0x00, 0x11, 0x00, 0x00, 0x00, 0x11, 0x00,
   0x00, 0x00, 0x11, 0x00, 0x00, 0x00, 0x11, 0x00, 0x00, 0x00, 0x11, 0x00,
   0x00, 0x00, 0x11, 0x01, 0x00, 0x00, 0xa2, 0x01, 0x00, 0x00, 0x42, 0x01,
   0x00, 0x00, 0x04, 0x01, 0x00, 0x00, 0x04, 0x01, 0x00, 0x00, 0x08, 0x01,
   0x00, 0x00, 0x04, 0x01, 0x00, 0x00, 0xfe, 0x01, 0x00, 0x00, 0x00, 0x00,
   0x00, 0x00, 0x00, 0x00, 0x00, 0x00, 0x00, 0x00, 0x00, 0x00, 0x00, 0x00,
   0x00, 0x00, 0x00, 0x00, 0x00, 0x00, 0x00, 0x00 };
