<?xml version="1.0" encoding="UTF-8" standalone="no"?>
<!-- Created with Inkscape (https://www.inkscape.org/) -->

<svg
   xmlns:dc="http://purl.org/dc/elements/1.1/"
   xmlns:cc="http://creativecommons.org/ns#"
   xmlns:rdf="http://www.w3.org/1999/02/22-rdf-syntax-ns#"
   xmlns:svg="http://www.w3.org/2000/svg"
   xmlns="http://www.w3.org/2000/svg"
   xmlns:sodipodi="http://sodipodi.sourceforge.net/DTD/sodipodi-0.dtd"
   xmlns:inkscape="http://www.inkscape.org/namespaces/inkscape"
   width="640"
   height="640"
   id="svg2"
   version="1.1"
   inkscape:version="0.47 r22583"
   sodipodi:docname="aven.svg">
  <defs
     id="defs4">
    <inkscape:perspective
       sodipodi:type="inkscape:persp3d"
       inkscape:vp_x="0 : 526.18109 : 1"
       inkscape:vp_y="0 : 1000 : 0"
       inkscape:vp_z="744.09448 : 526.18109 : 1"
       inkscape:persp3d-origin="372.04724 : 350.78739 : 1"
       id="perspective21" />
  </defs>
  <sodipodi:namedview
     id="base"
     pagecolor="#ffffff"
     bordercolor="#666666"
     borderopacity="1.0"
     inkscape:pageopacity="0"
     inkscape:pageshadow="2"
     inkscape:zoom="0.25000001"
     inkscape:cx="177.63824"
     inkscape:cy="265.97035"
     inkscape:document-units="px"
     inkscape:current-layer="layer4"
     showgrid="false"
     inkscape:window-width="1600"
     inkscape:window-height="825"
     inkscape:window-x="0"
     inkscape:window-y="25"
     inkscape:window-maximized="1" />
  <metadata
     id="metadata7">
    <rdf:RDF>
      <cc:Work
         rdf:about="">
        <dc:format>image/svg+xml</dc:format>
        <dc:type
           rdf:resource="http://purl.org/dc/dcmitype/StillImage" />
        <dc:title />
      </cc:Work>
    </rdf:RDF>
  </metadata>
  <g
     inkscape:groupmode="layer"
     id="layer4"
     inkscape:label="Body"
     style="display:inline"
     transform="translate(-64.904081,-183.47773)">
    <path
       style="display:inline;fill:none;stroke:#ff0000;stroke-width:16;stroke-linecap:butt;stroke-linejoin:miter;stroke-miterlimit:4;stroke-opacity:1;stroke-dasharray:none"
       d="m 105.12132,523.73476 c 0,6.66667 3.53553,13.33334 3.53553,20 0.13703,13.74346 -3.2549,26.79107 -6,40 -4.432238,17.88976 -4.756063,26.65952 -10.41421,40.93934 -9.903839,20.17035 -17.637644,43.28658 -16.585786,66.06066 3.969849,19.5153 16.245455,32.24119 31.999996,43 12.90058,9.04421 25.47458,18.7126 40,25 8.34521,3.84194 18.53318,6.95418 26,9 18.31549,3.76484 36.6674,6.28314 55,10 13.90067,3.77712 22.19924,5.84803 34,11 8.54887,1.91382 17.12336,6.79723 26,7 8.0874,0.30395 15.98238,0.0208 24,-1 17.59333,-2.33877 35.63353,-11.19137 48,-19 17.42821,-12.38684 -12.12686,-40.22416 -26,-54 -7.16869,-6.38735 -14.48334,-12.05618 -22,-18 -12.93051,-6.86001 -27.55357,-9.16541 -41,-15 -12.76446,-7.4151 -25.34264,-15.24001 -38,-23 -12.49719,-7.89021 -23.21727,-14.21293 -35,-21 -7.81036,-3.57507 -14.79661,-4.09442 -23,-6 -27.24374,-6.75992 -42.06871,-15.56801 -47,-30 -5.94114,-17.38742 -10.85824,-28.54274 -15,-44 -1.62293,-2.77603 -2.64662,-6.81768 -5,-9 1.75676,-7.65935 -6.59709,-27.43793 -3.53553,-32 z"
       id="path2910"
       sodipodi:nodetypes="ccccccccccccccccccccccc" />
    <path
       style="fill:#808000;fill-opacity:1;stroke:none;display:inline"
       d="m 105.35891,443.54324 c 0.7071,86.26703 0,83.4386 0,83.4386 l 274.35743,166.8772 310.41987,-241.12341 -2.12132,-75.66043 -581.94888,70.71068"
       id="path5197" />
  </g>
  <g
     inkscape:label="Upper Body"
     inkscape:groupmode="layer"
     id="layer1"
     style="display:inline"
     transform="translate(-64.904081,-183.47773)">
    <path
       style="fill:#ffff00;fill-opacity:1;stroke:#000000;stroke-width:16.91043663;stroke-miterlimit:4;stroke-opacity:1;display:inline"
       d="m 110.88752,442.291 247.64714,-187.5 c 137.05887,-102.94744 418.7577,49.53514 301.17662,151.65768 L 378.05022,613.50077 110.88752,442.291 z"
       id="rect5174"
       sodipodi:nodetypes="ccccc" />
    <path
       style="fill:none;stroke:#000000;stroke-width:16;stroke-linecap:butt;stroke-linejoin:miter;stroke-miterlimit:4;stroke-opacity:1;stroke-dasharray:none;display:inline"
       d="m 378.65685,694.73476 1,-84"
       id="path5183" />
    <path
       sodipodi:nodetypes="ccccc"
       style="fill:none;stroke:#000000;stroke-width:16;stroke-linecap:butt;stroke-linejoin:miter;stroke-miterlimit:4;stroke-opacity:1;stroke-dasharray:none;display:inline"
       d="m 104.65685,442.90633 0,82.82843 274,169 310,-245 0,-99"
       id="path5181" />
    <path
       sodipodi:type="arc"
       style="fill:#c0c0c0;fill-opacity:1;stroke:#000000;stroke-width:16;stroke-miterlimit:4;stroke-opacity:1;stroke-dasharray:none;display:inline"
       id="path5189"
       sodipodi:cx="313"
       sodipodi:cy="638.36218"
       sodipodi:rx="32"
       sodipodi:ry="31"
       d="m 345,638.36218 c 0,17.12083 -14.32689,31 -32,31 -17.67311,0 -32,-13.87917 -32,-31 0,-17.12082 14.32689,-31 32,-31 17.67311,0 32,13.87918 32,31 z"
       transform="matrix(0.78633379,0,0,1.0697639,-4.1727271,-115.2656)" />
  </g>
  <g
     inkscape:groupmode="layer"
     id="layer3"
     inkscape:label="Top"
     style="display:inline"
     transform="translate(-64.904081,-183.47773)">
    <g
       style="display:inline"
       id="g5245"
       transform="translate(5.6568541,-22.627416)">
      <path
         transform="matrix(1.035731,0,0,1.0781919,8.0116096,-38.834752)"
         d="m 569,379.86218 c 0,43.90664 -52.8304,79.5 -118,79.5 -65.1696,0 -118,-35.59336 -118,-79.5 0,-43.90663 52.8304,-79.5 118,-79.5 65.1696,0 118,35.59337 118,79.5 z"
         sodipodi:ry="79.5"
         sodipodi:rx="118"
         sodipodi:cy="379.86218"
         sodipodi:cx="451"
         id="path3686"
         style="fill:#ffffff;fill-opacity:1;stroke:#000000;stroke-width:15.14078712;stroke-miterlimit:4;stroke-opacity:1;stroke-dasharray:none"
         sodipodi:type="arc" />
      <g
         transform="translate(-2.8778944,2.6699814)"
         id="g5225">
        <path
           style="fill:#ff0000;fill-opacity:1;stroke:#ff0000;stroke-width:1px;stroke-linecap:butt;stroke-linejoin:miter;stroke-opacity:1"
           d="m 535.98694,315.55692 -48.08326,58.68986 -19.79899,-12.72792 67.88225,-45.96194 z"
           id="path5201" />
        <path
           style="fill:#000000;fill-opacity:1;stroke:#000000;stroke-width:1px;stroke-linecap:butt;stroke-linejoin:miter;stroke-opacity:1;display:inline"
           d="m 420.02143,420.56227 48.08326,-58.68986 19.79899,12.72792 -67.88225,45.96194 z"
           id="path5201-9" />
      </g>
    </g>
  </g>
  <g
     inkscape:groupmode="layer"
     id="layer2"
     inkscape:label="Layer"
     style="display:inline"
     transform="translate(-64.904081,-183.47773)" />
</svg>
