/* XPM */
static char *aven_xpm[] = {
/* columns rows colors chars-per-pixel */
"32 32 208 2",
"   c #010100",
".  c #040400",
"X  c #050500",
"o  c #080800",
"O  c #090900",
"+  c #0B0B00",
"@  c #0C0C00",
"#  c #0D0D00",
"$  c #0E0E00",
"%  c #0F0F00",
"&  c #101000",
"*  c #111100",
"=  c #131300",
"-  c #141400",
";  c #151500",
":  c #161600",
">  c #171700",
",  c #101007",
"<  c #181800",
"1  c #191900",
"2  c #1A1A00",
"3  c #1B1B00",
"4  c #1D1D00",
"5  c #1E1E00",
"6  c #1F1F00",
"7  c #18180D",
"8  c #1A1A0E",
"9  c #250000",
"0  c #202000",
"q  c #212100",
"w  c #222200",
"e  c #232300",
"r  c #262600",
"t  c #242403",
"y  c #282800",
"u  c #292900",
"i  c #2B2B00",
"p  c #2C2C00",
"a  c #2E2E00",
"s  c #313100",
"d  c #323200",
"f  c #343400",
"g  c #353500",
"h  c #383800",
"j  c #393900",
"k  c #3B3B00",
"l  c #3C3C00",
"z  c #3D3D00",
"x  c #3E3E00",
"c  c #222215",
"v  c #2E2E15",
"b  c #2F2F17",
"n  c #343415",
"m  c #3B3B15",
"M  c #3F3F15",
"N  c #323218",
"B  c #353518",
"V  c #33331F",
"C  c #2D2727",
"Z  c #2C2C26",
"A  c #363620",
"S  c #642200",
"D  c #404000",
"F  c #424200",
"G  c #454500",
"H  c #4C4600",
"J  c #484800",
"K  c #494900",
"L  c #4A4A00",
"P  c #4B4B00",
"I  c #4E4E00",
"U  c #4F4F00",
"Y  c #545400",
"T  c #555500",
"R  c #565600",
"E  c #575700",
"W  c #525207",
"Q  c #595900",
"!  c #5B5B00",
"~  c #5E5E00",
"^  c #5F5F00",
"/  c #464612",
"(  c #404017",
")  c #464616",
"_  c #4A4A1A",
"`  c #555517",
"'  c #626200",
"]  c #636300",
"[  c #646400",
"{  c #666600",
"}  c #676700",
"|  c #6B6B00",
" . c #6E6E00",
".. c #717100",
"X. c #747400",
"o. c #767600",
"O. c #777700",
"+. c #787800",
"@. c #7B7B00",
"#. c #7C7C00",
"$. c #7D7D00",
"%. c #7E7E00",
"&. c #7F7F00",
"*. c #656511",
"=. c #676712",
"-. c #686814",
";. c #454529",
":. c #4D4D3C",
">. c #50503A",
",. c #565641",
"<. c #5E5E4C",
"1. c #505050",
"2. c #64644E",
"3. c #646455",
"4. c #666662",
"5. c #767666",
"6. c #777766",
"7. c #AB0000",
"8. c #F60000",
"9. c #FF0000",
"0. c #FF2A2A",
"q. c #FF7D7D",
"w. c #808000",
"e. c #818100",
"r. c #858500",
"t. c #8A8A00",
"y. c #8F8F00",
"u. c #8E8E05",
"i. c #89890A",
"p. c #8B8B0E",
"a. c #909000",
"s. c #969601",
"d. c #9C9C00",
"f. c #9D9D00",
"g. c #90900A",
"h. c #95950B",
"j. c #9A9A0A",
"k. c #A5A500",
"l. c #ADAD00",
"z. c #AFAF00",
"x. c #B0B000",
"c. c #B2B200",
"v. c #B3B300",
"b. c #B8B800",
"n. c #B9B900",
"m. c #B9B901",
"M. c #BABA00",
"N. c #BBBB00",
"B. c #BEBE00",
"V. c #C0C000",
"C. c #C2C200",
"Z. c #C3C300",
"A. c #CCCC00",
"S. c #CECE00",
"D. c #D2D200",
"F. c #D5D500",
"G. c #D7D700",
"H. c #DBDB00",
"J. c #DDDD00",
"K. c #E1E100",
"L. c #E4E400",
"P. c #E6E600",
"I. c #E8E800",
"U. c #E9E900",
"Y. c #EAEA00",
"T. c #EEEE00",
"R. c #F1F100",
"E. c #F2F200",
"W. c #F3F300",
"Q. c #F7F700",
"!. c #F8F800",
"~. c #FAFA00",
"^. c #FBFB00",
"/. c #FCFC00",
"(. c #FEFE00",
"). c #FFFF00",
"_. c #8B8B84",
"`. c #8B8B8B",
"'. c #9B9B93",
"]. c #999999",
"[. c #9F9F9B",
"{. c #A0A0A0",
"}. c #A1A1A1",
"|. c #AEAEAB",
" X c #AEAEAE",
".X c #BDBDBB",
"XX c #BEBEBE",
"oX c #E9A7A7",
"OX c #FBB8B8",
"+X c #C0C0C0",
"@X c #C2C2C2",
"#X c #CECECE",
"$X c #D4D4D4",
"%X c #D8D8D8",
"&X c #DFDFDF",
"*X c #FFC8C8",
"=X c #E0E0E0",
"-X c #E4E4E4",
";X c #E9E9E9",
":X c #FFE2E2",
">X c #FFE4E4",
",X c #FFEFEF",
"<X c #FAFAFA",
"1X c #FBFBFB",
"2X c #FCFCFC",
"3X c #FEFEFE",
"4X c #FFFFFF",
"5X c None",
/* pixels */
"5X5X5X5X5X5X5X5X5X5X5X5X5X5X5X5X5X5X5X5X5X5X5X5X5X5X5X5X5X5X5X5X",
"5X5X5X5X5X5X5X5X5X5X5X5X5X5X5X5X5X5X5X4 4 5X5X5X5X5X5X5X5X5X5X5X",
"5X5X5X5X5X5X5X5X5X5X5X5X5X5X5X5X; P a.N.N.z.t.P ; 3 5X5X5X5X5X5X",
"5X5X5X5X5X5X5X5X5X5X5X5X5X5X; [ Y./.H.k.u.s.b.E.!.v.s ; 5X5X5X5X",
"5X5X5X5X5X5X5X5X5X5X5X5X5X4 Z./.N.m >._.{.].5.A *.I./.v.3 5X5X5X",
"5X5X5X5X5X5X5X5X5X5X5X; g Y./.p.:.-X4X4X4X4X4X>X|.B J./.P.y 5X5X",
"5X5X5X5X5X5X5X5X5X5X; +././.S.,.4X4X4X4X4X,Xq.:X4X%X_ /./.Y.e 5X",
"5X5X5X5X5X5X5X5X5X; N./././.-.#X4X4X4X4XOX0.*X4X4X4X2.H././.w.5X",
"5X5X5X5X5X5X5X; s P././././.` =X4X4X4X@XC oX4X4X4X4X6.B././.a.+ ",
"5X5X5X5X5X5X; ..!./././././.j.'.4X4X&X1.$X4X4X4X4X4X;.Q././.Q X ",
"5X5X5X5X5X; b./././././././.!.( .X<X X<X4X4X4X4X<X3.h././.b.3 # ",
"5X5X5X; a L./././././././././.Y./ <.@X<X4X4X;X[.V u././.r.e E & ",
"5X5XX [ /././././././././././././.Z.=.n N b ) u.P./.I.z z $.] & ",
"5X5X3 s F././././././././././././././././././././.N.e Q w.+.e ; ",
"5X5XP [ e +.!././././././././././././././././.!.o.r ..w. .; 5X5X",
"5X5XH w.$.G r Z././././././././././././././.L.g G $.w.! & 5X5X5X",
"5X5XS w.w.w.| y ] E./././././././././././.z.4 ] $.$.D & 5X5X5X5X",
"5X7.9 G $.w.w...8 7 v././././././././.!.[ y o.w.+.r ; 5X5X5X5X5X",
"5X5X8.# ; | w.( {.4.e I I./././././.H.a P $.$. .& 5X5X5X5X5X5X5X",
"5X5X9.5X5X+ s B +X`.W E e f./././.f.4 [ w.w.E & 5X5X5X5X5X5X5X5X",
"5X9.9.5X5X5X5X, Z c o.w.+.k k S.E s +.w.$.k & 5X5X5X5X5X5X5X5X5X",
"5X9.5X9.5X5X5X5X+ ;  .w.w.w.! X P w.w.o.4 # 5X5X5X5X5X5X5X5X5X5X",
"5X9.5X5X9.9.5X5X5X5X+ z $.w.w.y ..$.[ & 5X5X5X5X5X5X5X5X5X5X5X5X",
"9.5X5X5X5X5X5X9.5X5X5X5X& ! w.r ..Y # 5X5X5X5X5X5X5X5X5X5X5X5X5X",
"9.5X5X5X5X5X5X5X9.9.5X5X5X+ r e a # 5X5X5X5X5X5X5X5X5X5X5X5X5X5X",
"9.5X5X5X5X5X5X5X5X5X9.9.5X5X5X  5X5X5X5X5X5X5X5X5X5X5X5X5X5X5X5X",
"5X9.5X5X5X5X5X5X5X5X5X5X9.9.5X5X5X5X5X5X5X5X5X5X5X5X5X5X5X5X5X5X",
"5X5X9.5X5X5X5X5X5X5X5X5X5X9.9.5X5X5X5X5X5X5X5X5X5X5X5X5X5X5X5X5X",
"5X5X5X9.9.5X5X5X5X5X5X5X5X5X9.5X5X5X5X5X5X5X5X5X5X5X5X5X5X5X5X5X",
"5X5X5X5X5X9.9.9.9.5X5X5X5X5X9.5X5X5X5X5X5X5X5X5X5X5X5X5X5X5X5X5X",
"5X5X5X5X5X5X5X5X5X9.9.9.9.9.5X5X5X5X5X5X5X5X5X5X5X5X5X5X5X5X5X5X",
"5X5X5X5X5X5X5X5X5X5X5X5X5X5X5X5X5X5X5X5X5X5X5X5X5X5X5X5X5X5X5X5X"
};
