/* XPM */
static char *defaults_xpm[] = {
/* columns rows colors chars-per-pixel */
"15 15 3 1",
"  c #000084",
". c #848484",
"X c None",
/* pixels */
"XXXXXXXXXXXXXXX",
"XXXXXXXXXXXXXXX",
"XXXXXXXXXXXXXXX",
"XXXXXXXXXXXXXXX",
"XXXXXXXX    XXX",
"XX XXX  XXXX .X",
"XX  X XXXXXXX X",
"XX   XXXXXXXX X",
"XX    XXXXXXX X",
"XX     XXXXX .X",
"XXXXXXXXXXX. XX",
"XXXXXXXXXXXXXXX",
"XXXXXXXXXXXXXXX",
"XXXXXXXXXXXXXXX",
"XXXXXXXXXXXXXXX"
};
