/* XPM */
static char *elevation_xpm[] = {
/* columns rows colors chars-per-pixel */
"15 15 3 1",
"  c #000000",
". c #F2E9C1",
"X c None",
/* pixels */
"XXXXXXXXXXXXXXX",
"XXXXXXX XXXXXXX",
"XXXXXXX  XXXXXX",
"XXXXXXX . XXXXX",
"XXXXXXX .. XXXX",
"X       ... XXX",
"X .......... XX",
"X ........... X",
"X .......... XX",
"X       ... XXX",
"XXXXXXX .. XXXX",
"XXXXXXX . XXXXX",
"XXXXXXX  XXXXXX",
"XXXXXXX XXXXXXX",
"XXXXXXXXXXXXXXX"
};
