/* XPM */
static char *entrances_xpm[] = {
/* columns rows colors chars-per-pixel */
"15 15 2 1",
"  c #4AA003",
". c None",
/* pixels */
"...............",
"...............",
"...............",
".....    ......",
".... .... .....",
"... ...... ....",
"..  ......  ...",
"..  ......  ...",
"..  ......  ...",
"..  ......  ...",
"...  ....  ....",
"....  ..  .....",
".. .. .. .. ...",
"..    ..    ...",
"..............."
};
