/* XPM */
static char *find_xpm[] = {
/* columns rows colors chars-per-pixel */
"15 15 4 1",
"  c #000000",
". c #1094A5",
"X c #FFFFFF",
"o c None",
/* pixels */
"ooooooooooooooo",
"ooo   ooooooooo",
"oo XXX oooooooo",
"o XXXXX ooooooo",
"o XXXX. ooooooo",
"o XXXX. ooooooo",
"oo X..  ooooooo",
"ooo      oooooo",
"ooooooo   ooooo",
"oooooooo   oooo",
"ooooooooo   ooo",
"oooooooooo   oo",
"ooooooooooo  oo",
"ooooooooooooooo",
"ooooooooooooooo"
};
