/* XPM */
static char *fixed_pts_xpm[] = {
/* columns rows colors chars-per-pixel */
"15 15 2 1",
"  c #FF0000",
". c None",
/* pixels */
"...............",
"....... .......",
"....... .......",
"......   ......",
".....  .  .....",
".....  .  .....",
"....  ...  ....",
"...  .....  ...",
"...  .. ..  ...",
"..  ..   ..  ..",
".  .... ....  .",
".  .........  .",
"               ",
"               ",
"..............."
};
