/* XPM */
static char *hideresults_xpm[] = {
/* columns rows colors chars-per-pixel */
"15 15 5 1",
"  c #000000",
". c #D30404",
"X c #1094A5",
"o c #FFFFFF",
"O c None",
/* pixels */
"OOOOOOOOOOOOOOO",
"OOO   OOOO....O",
"OO ooo OO.....O",
"O ooooo O.....O",
"O ooooX......OO",
"O oooo......OOO",
"OO oXX.....OOOO",
"OOO ......OOOOO",
"OOOO..... OOOOO",
"OOO.....   OOOO",
"OO.....OO   OOO",
"O.....OOOO   OO",
"O....OOOOOO  OO",
"O....OOOOOOOOOO",
"OOOOOOOOOOOOOOO"
};
