/* XPM */
static char * log_xpm[] = {
"15 15 4 1",
" 	c None",
".	c #000000",
"+	c #E0FFE0",
"@	c #FFFFFF",
" ............. ",
" .+++++++++++. ",
" .@.@.@.@@@@@. ",
" .+++++++++++. ",
" .@.@.@..@@@@. ",
" .+++++++++++. ",
" .@.@..@.@@@@. ",
" .+++++++++++. ",
" .@.@.@.@..@@. ",
" .+++++++++++. ",
" .@.@@@@@@@@@. ",
" .+++++++++++. ",
" .@..@.@.@..@. ",
" .+++++++++++. ",
" ............. "};
