/* XPM */
static char *names_xpm[] = {
/* columns rows colors chars-per-pixel */
"15 15 2 1",
"  c #000000",
". c None",
/* pixels */
"...............",
"...............",
"...............",
"......  .......",
".....    ......",
".....    ......",
"..... .. ......",
"....  ..  .....",
"....      .....",
"...        ....",
"...  ....  ....",
"..  ......  ...",
"..  ......  ...",
"...............",
"..............."
};
