/* XPM */
static char *plan_xpm[] = {
/* columns rows colors chars-per-pixel */
"15 15 3 1",
"  c #000000",
". c #F2E9C1",
"X c None",
/* pixels */
"XXXXXXXXXXXXXXX",
"XXXXX     XXXXX",
"XXXXX ... XXXXX",
"XXXXX ... XXXXX",
"XXXXX ... XXXXX",
"XXXXX ... XXXXX",
"XXXXX ... XXXXX",
"X     ...     X",
"XX ......... XX",
"XXX ....... XXX",
"XXXX ..... XXXX",
"XXXXX ... XXXXX",
"XXXXXX . XXXXXX",
"XXXXXXX XXXXXXX",
"XXXXXXXXXXXXXXX"
};
