/* XPM */
static char *pres_stop_xpm[] = {
/* columns rows colors chars-per-pixel */
"15 15 3 1",
"  c #000000",
". c #60E03C",
"X c None",
/* pixels */
"XXXXXXXXXXXXXXX",
"XXXXXXXXXXXXXXX",
"XXXXXXXXXXXXXXX",
"XXX         XXX",
"XXX ....... XXX",
"XXX ....... XXX",
"XXX ....... XXX",
"XXX ....... XXX",
"XXX ....... XXX",
"XXX ....... XXX",
"XXX ....... XXX",
"XXX         XXX",
"XXXXXXXXXXXXXXX",
"XXXXXXXXXXXXXXX",
"XXXXXXXXXXXXXXX"
};
