/* XPM */
static char *pres_fff_xpm[] = {
/* columns rows colors chars-per-pixel */
"15 15 3 1",
"  c #000000",
". c #60E03C",
"X c None",
/* pixels */
"XXXXXXXXXXXXXXX",
" XXX XXX XXXXXX",
"  XX  XX  XXXXX",
" . X . X . XXXX",
" ..  ..  .. XXX",
" ... ... ... XX",
" .... ... ... X",
" ..... ... ... ",
" .... ... ... X",
" ... ... ... XX",
" ..  ..  .. XXX",
" . X . X . XXXX",
"  XX  XX  XXXXX",
" XXX XXX XXXXXX",
"XXXXXXXXXXXXXXX"
};
