/* XPM */
static char *pres_frew_xpm[] = {
/* columns rows colors chars-per-pixel */
"15 15 3 1",
"  c #000000",
". c #60E03C",
"X c None",
/* pixels */
"XXXXXXXXXXXXXXX",
"XXXXXX XXX XXX ",
"XXXXX  XX  XX  ",
"XXXX . X . X . ",
"XXX ..  ..  .. ",
"XX ... ... ... ",
"X ... ... .... ",
" ... ... ..... ",
"X ... ... .... ",
"XX ... ... ... ",
"XXX ..  ..  .. ",
"XXXX . X . X . ",
"XXXXX  XX  XX  ",
"XXXXXX XXX XXX ",
"XXXXXXXXXXXXXXX"
};
