/* XPM */
static char *pres_ff_xpm[] = {
/* columns rows colors chars-per-pixel */
"15 15 3 1",
"  c #000000",
". c #60E03C",
"X c None",
/* pixels */
"XXXXXXXXXXXXXXX",
" XXXXXXX XXXXXX",
"  XXXXXX  XXXXX",
" . XXXXX . XXXX",
" .. XXXX .. XXX",
" ... XXX ... XX",
" .... XX .... X",
" ..... X ..... ",
" .... XX .... X",
" ... XXX ... XX",
" .. XXXX .. XXX",
" . XXXXX . XXXX",
"  XXXXXX  XXXXX",
" XXXXXXX XXXXXX",
"XXXXXXXXXXXXXXX"
};
