/* XPM */
static char *pres_rew_xpm[] = {
/* columns rows colors chars-per-pixel */
"15 15 3 1",
"  c #000000",
". c #60E03C",
"X c None",
/* pixels */
"XXXXXXXXXXXXXXX",
"XXXXXX XXXXXXX ",
"XXXXX  XXXXXX  ",
"XXXX . XXXXX . ",
"XXX .. XXXX .. ",
"XX ... XXX ... ",
"X .... XX .... ",
" ..... X ..... ",
"X .... XX .... ",
"XX ... XXX ... ",
"XXX .. XXXX .. ",
"XXXX . XXXXX . ",
"XXXXX  XXXXXX  ",
"XXXXXX XXXXXXX ",
"XXXXXXXXXXXXXXX"
};
