/* XPM */
static char *solid_surface_xpm[] = {
/* columns rows colors chars-per-pixel */
"15 15 6 1",
"  c #000000",
". c #214F14",
"X c #347D20",
"o c #409B28",
"O c #54C934",
"+ c None",
/* pixels */
"+++++++++++++++",
"+++++++++++++++",
"+++++++++++++++",
"++++++   ++++++",
"+++++ .X. +++  ",
"++++ .OOO.   . ",
"+++ .OOOOOOOOo ",
"++ .OOOOOOOOO. ",
"+ .OOOOOOOOOo +",
" .. .OOOOOOO. +",
" . + .OOOOO. ++",
"  +++ .OOO. +++",
"++++++ .X. ++++",
"+++++++   +++++",
"+++++++++++++++"
};
