/* XPM */
static char *surface_legs_xpm[] = {
/* columns rows colors chars-per-pixel */
"15 15 46 1",
"  c #291010",
". c #003908",
"X c #003910",
"o c #183918",
"O c #212121",
"+ c #004210",
"@ c #007B18",
"# c #187B29",
"$ c #5A5A5A",
"% c #6B7B73",
"& c #008418",
"* c #088418",
"= c #008421",
"- c #108421",
"; c #108C29",
": c #188C29",
"> c #089421",
", c #218C29",
"< c #298431",
"1 c #218C31",
"2 c #00B521",
"3 c #08B529",
"4 c #08BD29",
"5 c #10B531",
"6 c #10BD31",
"7 c #08C629",
"8 c #4AB552",
"9 c #52B552",
"0 c #52B55A",
"q c #52BD5A",
"w c #63B563",
"e c #63BD63",
"r c #63BD73",
"t c #6BBD7B",
"y c #39C64A",
"u c #39CE4A",
"i c #39CE52",
"p c #42C64A",
"a c #42CE52",
"s c #63C673",
"d c #9C9C9C",
"f c #B5BDB5",
"g c #BDD6C6",
"h c #DEDEDE",
"j c #E7E7E7",
"k c None",
/* pixels */
"kkkkkkkkkkkk#<3",
"kkkkkkkkkkk;ea7",
"kkkkkkkkkk:wu4=",
"kkkkkkkkk,qi4*+",
"kkkkkkkk:9p6*.k",
"kkkkkkk10u6&Xkk",
"kkkkkk18a6&+kkk",
"kkkkk18y5&.kkkk",
"kkkk:0a5@Xkkkkk",
"kkkkta6&Xkkkkkk",
"kkkjgr-.kkkkkkk",
"kkjhf%okkkkkkkk",
"kksd$Okkkkkkkkk",
"k2> kkkkkkkkkkk",
"kkkkkkkkkkkkkkk"
};
