/* XPM */
static char *survey_tree_xpm[] = {
/* columns rows colors chars-per-pixel */
"15 15 3 1",
"  c #000000",
". c #2759D8",
"X c None",
/* pixels */
"XXXXXXXXXXXXXXX",
"XX XXXXXXXXXXXX",
"XX XXXXXXXX.XXX",
"XX       XX.XXX",
"XX XXXXXXXX.XXX",
"XX XXXXXXXXXXXX",
"XX XXXXXXX..XXX",
"XX       XX.XXX",
"XX XX XXXX..X.X",
"XX XX XXXXXXXXX",
"XX XX XXXXXXXXX",
"XX XX    X..XXX",
"XX XXXXXXXX.XXX",
"XX XXXXXXX..X.X",
"XXXXXXXXXXXXXXX"
};
