/* XPM */
static char *ug_legs_xpm[] = {
/* columns rows colors chars-per-pixel */
"15 15 35 1",
"  c #291010",
". c #212121",
"X c #420000",
"o c #4A0000",
"O c #520000",
"+ c #421010",
"@ c #6B0000",
"# c #5A5A5A",
"$ c #8C0000",
"% c #8C0808",
"& c #9C0808",
"* c #9C1010",
"= c #A50000",
"- c #A50808",
"; c #B50000",
": c #BD0000",
"> c #B50808",
", c #CE1818",
"< c #CE2929",
"1 c #CE3131",
"2 c #C63939",
"3 c #CE3939",
"4 c #EF3939",
"5 c #BD5A5A",
"6 c #846B6B",
"7 c #CE4242",
"8 c #C65A5A",
"9 c #C66363",
"0 c #9C9C9C",
"q c #BDB5B5",
"w c #D6BDBD",
"e c #DEDEDE",
"r c #E7DEDE",
"t c #E7E7E7",
"y c None",
/* pixels */
"yyyyyyyyyyyy-4,",
"yyyyyyyyyyy&7<:",
"yyyyyyyyyy&7<:$",
"yyyyyyyyy*3<;$O",
"yyyyyyyy*2<:$oy",
"yyyyyyy*3<;$oyy",
"yyyyyy*2<>$oyyy",
"yyyyy*2<>$Xyyyy",
"yyyy*3<>$oyyyyy",
"yyyy91>$oyyyyyy",
"yyyrw5%Xyyyyyyy",
"yyteq6+yyyyyyyy",
"yy80#.yyyyyyyyy",
"y=@ yyyyyyyyyyy",
"yyyyyyyyyyyyyyy"
};
