#define brotate_width 32
#define brotate_height 32
static unsigned char brotate_bits[] = {
   0x00, 0x00, 0x00, 0x00, 0x00, 0x00, 0x00, 0x00, 0x00, 0x00, 0x00, 0x00,
   0x00, 0x00, 0x00, 0x00, 0x00, 0x00, 0x00, 0x00, 0x00, 0x00, 0x00, 0x00,
   0x00, 0x00, 0x00, 0x00, 0x00, 0x00, 0x00, 0x00, 0x00, 0x00, 0x00, 0x00,
   0x00, 0x00, 0x00, 0x00, 0xf8, 0x07, 0xff, 0x00, 0x08, 0x02, 0x82, 0x00,
   0x08, 0x01, 0x84, 0x00, 0x08, 0x02, 0x82, 0x00, 0x08, 0xfc, 0x81, 0x00,
   0x28, 0x00, 0xa0, 0x00, 0xd8, 0x00, 0xd0, 0x00, 0x08, 0x03, 0x88, 0x00,
   0x00, 0xfc, 0x08, 0x00, 0x00, 0x80, 0x08, 0x00, 0x00, 0x80, 0x08, 0x00,
   0x00, 0x80, 0x08, 0x00, 0x00, 0x80, 0x08, 0x00, 0x00, 0x80, 0x88, 0x00,
   0x00, 0x00, 0xd9, 0x00, 0x00, 0x00, 0xa1, 0x00, 0x00, 0x00, 0x82, 0x00,
   0x00, 0x00, 0x82, 0x00, 0x00, 0x00, 0x84, 0x00, 0x00, 0x00, 0x82, 0x00,
   0x00, 0x00, 0xff, 0x00, 0x00, 0x00, 0x00, 0x00 };
