#define hand_width 32
#define hand_height 32
static unsigned char hand_bits[] = {
   0x00, 0x00, 0x00, 0x00, 0x00, 0x00, 0x00, 0x00, 0x00, 0x00, 0x00, 0x00,
   0x00, 0x00, 0x00, 0x00, 0x00, 0x00, 0x00, 0x00, 0x00, 0x00, 0x00, 0x00,
   0x00, 0x00, 0x00, 0x00, 0x00, 0x00, 0x00, 0x00, 0x00, 0x0c, 0x00, 0x00,
   0x00, 0x12, 0x00, 0x00, 0x80, 0x73, 0x00, 0x00, 0x40, 0x92, 0x00, 0x00,
   0x40, 0x92, 0x00, 0x00, 0x70, 0x92, 0x00, 0x00, 0x48, 0x92, 0x00, 0x00,
   0x48, 0x92, 0x00, 0x00, 0x48, 0x92, 0x00, 0x00, 0x48, 0x92, 0x06, 0x00,
   0x48, 0x80, 0x09, 0x00, 0x08, 0x80, 0x08, 0x00, 0x08, 0x80, 0x04, 0x00,
   0x08, 0x00, 0x02, 0x00, 0x08, 0x00, 0x02, 0x00, 0x08, 0x00, 0x01, 0x00,
   0x10, 0x00, 0x01, 0x00, 0x10, 0x80, 0x00, 0x00, 0x10, 0x80, 0x00, 0x00,
   0x20, 0x40, 0x00, 0x00, 0x20, 0x40, 0x00, 0x00, 0xe0, 0x7f, 0x00, 0x00,
   0x00, 0x00, 0x00, 0x00, 0x00, 0x00, 0x00, 0x00 };
