#define rotatezoom_width 32
#define rotatezoom_height 32
static unsigned char rotatezoom_bits[] = {
   0x00, 0x00, 0x00, 0x00, 0x00, 0x00, 0x00, 0x00, 0x00, 0x00, 0x00, 0x00,
   0x00, 0x00, 0x00, 0x00, 0x00, 0x00, 0x00, 0x00, 0x00, 0x00, 0x00, 0x00,
   0x00, 0x00, 0x00, 0x00, 0xc0, 0x3f, 0xf9, 0x07, 0x40, 0x90, 0x12, 0x04,
   0x40, 0x48, 0x24, 0x04, 0x40, 0x90, 0x12, 0x04, 0x40, 0xe0, 0x0e, 0x04,
   0x40, 0x01, 0x00, 0x05, 0xc0, 0x06, 0xc0, 0x06, 0x40, 0x18, 0x30, 0x04,
   0x00, 0x60, 0x0c, 0x00, 0x00, 0x40, 0x04, 0x00, 0x00, 0x20, 0x08, 0x00,
   0x00, 0x3e, 0xf8, 0x00, 0x00, 0x04, 0x40, 0x00, 0x00, 0x08, 0x20, 0x00,
   0x00, 0x10, 0x10, 0x00, 0x00, 0x20, 0x08, 0x00, 0x00, 0x40, 0x04, 0x00,
   0x00, 0x80, 0x02, 0x00, 0x00, 0x00, 0x01, 0x00, 0x00, 0x00, 0x00, 0x00,
   0x00, 0x00, 0x00, 0x00, 0x00, 0x00, 0x00, 0x00, 0x00, 0x00, 0x00, 0x00,
   0x00, 0x00, 0x00, 0x00, 0x00, 0x00, 0x00, 0x00 };
